<svg width="65" height="66" viewBox="0 0 65 66" fill="none" xmlns="http://www.w3.org/2000/svg">
<path d="M47.9515 53.9194C47.9515 51.2283 45.7697 49.0464 43.0784 49.0464C45.7697 49.0464 47.9515 46.8647 47.9515 44.1733C47.9515 46.8647 50.1334 49.0464 52.8247 49.0464C50.1334 49.0464 47.9515 51.2283 47.9515 53.9194ZM32.9459 47.9094C38.2694 46.9984 45.5835 44.1119 47.4095 33.4457C48.0462 42.7672 41.0933 48.4664 32.9459 47.9094ZM37.5612 33C37.5612 35.7908 35.2908 38.0612 32.5 38.0612C31.8089 38.0612 31.1498 37.9216 30.549 37.6696V37.6701H30.5489C28.724 36.9047 27.4388 35.0997 27.4388 33C27.4388 31.8245 27.8427 30.7422 28.5176 29.8821C27.5044 30.8987 26.9254 32.336 27.0536 33.8752C27.2249 35.9308 28.6086 37.6002 30.4419 38.2379H30.4423C29.5082 43.8662 32.5 48.3528 32.5 48.3528C24.0209 48.3528 17.1473 41.4791 17.1473 33C17.1473 24.5209 24.0209 17.6473 32.5 17.6473C38.1821 17.6473 43.1395 20.7365 45.7943 25.3245L60.6424 16.7519C55.0225 7.03949 44.5282 0.5 32.5 0.5C14.5507 0.5 0 15.0507 0 33C0 50.9493 14.5507 65.5 32.5 65.5C50.4493 65.5 65 50.9493 65 33H37.5612ZM32.1961 30.3246C34.0514 30.1801 35.5066 31.8536 35.108 33.6698C35.0041 32.0292 33.8068 30.6537 32.1961 30.3246ZM32.5 29.5875C30.6153 29.5875 29.0875 31.1153 29.0875 33C29.0875 34.8847 30.6153 36.4125 32.5 36.4125C34.3847 36.4125 35.9125 34.8847 35.9125 33C35.9125 31.1153 34.3847 29.5875 32.5 29.5875Z" fill="#ECEDEE"/>
</svg>
